<svg xmlns="http://www.w3.org/2000/svg" xmlns:xlink="http://www.w3.org/1999/xlink" width="150" zoomAndPan="magnify" viewBox="0 0 112.5 158.249993" height="211" preserveAspectRatio="xMidYMid meet" version="1.0"><defs><clipPath id="id1"><path d="M 0.015625 0 L 111.984375 0 L 111.984375 157.503906 L 0.015625 157.503906 Z M 0.015625 0 " clip-rule="nonzero"/></clipPath><clipPath id="id2"><path d="M 5 29 L 107 29 L 107 130.347656 L 5 130.347656 Z M 5 29 " clip-rule="nonzero"/></clipPath><clipPath id="id3"><path d="M 17 17.128906 L 109 17.128906 L 109 130.347656 L 17 130.347656 Z M 17 17.128906 " clip-rule="nonzero"/></clipPath></defs><g clip-path="url(#id1)"><path fill="rgb(100%, 100%, 100%)" d="M 0.015625 0 L 112.484375 0 L 112.484375 164.953125 L 0.015625 164.953125 Z M 0.015625 0 " fill-opacity="1" fill-rule="nonzero"/><path fill="rgb(100%, 100%, 100%)" d="M 0.015625 0 L 112.484375 0 L 112.484375 158.203125 L 0.015625 158.203125 Z M 0.015625 0 " fill-opacity="1" fill-rule="nonzero"/><path fill="rgb(100%, 100%, 100%)" d="M 0.015625 0 L 112.484375 0 L 112.484375 158.203125 L 0.015625 158.203125 Z M 0.015625 0 " fill-opacity="1" fill-rule="nonzero"/><path fill="rgb(100%, 100%, 100%)" d="M 0.015625 0 L 112.484375 0 L 112.484375 158.203125 L 0.015625 158.203125 Z M 0.015625 0 " fill-opacity="1" fill-rule="nonzero"/></g><g clip-path="url(#id2)"><path fill="rgb(100%, 92.158508%, 60.778809%)" d="M 56.308594 29.261719 C 54.652344 29.261719 53 29.339844 51.347656 29.503906 C 49.699219 29.664062 48.0625 29.90625 46.4375 30.230469 C 44.8125 30.550781 43.207031 30.953125 41.621094 31.433594 C 40.035156 31.914062 38.476562 32.46875 36.945312 33.105469 C 35.414062 33.738281 33.917969 34.445312 32.453125 35.222656 C 30.992188 36.003906 29.574219 36.855469 28.195312 37.773438 C 26.816406 38.691406 25.488281 39.675781 24.207031 40.726562 C 22.925781 41.777344 21.699219 42.886719 20.527344 44.058594 C 19.355469 45.230469 18.242188 46.453125 17.191406 47.734375 C 16.140625 49.015625 15.152344 50.34375 14.230469 51.71875 C 13.3125 53.09375 12.460938 54.511719 11.679688 55.972656 C 10.898438 57.433594 10.191406 58.929688 9.554688 60.457031 C 8.921875 61.988281 8.363281 63.546875 7.882812 65.128906 C 7.402344 66.714844 7 68.316406 6.675781 69.941406 C 6.351562 71.566406 6.109375 73.203125 5.945312 74.847656 C 5.785156 76.496094 5.703125 78.148438 5.703125 79.804688 C 5.703125 81.460938 5.785156 83.113281 5.945312 84.757812 C 6.109375 86.40625 6.351562 88.042969 6.675781 89.667969 C 7 91.289062 7.402344 92.894531 7.882812 94.480469 C 8.363281 96.0625 8.921875 97.621094 9.554688 99.152344 C 10.191406 100.679688 10.898438 102.175781 11.679688 103.636719 C 12.460938 105.09375 13.3125 106.511719 14.230469 107.890625 C 15.152344 109.265625 16.140625 110.59375 17.191406 111.875 C 18.242188 113.152344 19.355469 114.378906 20.527344 115.550781 C 21.699219 116.71875 22.925781 117.832031 24.207031 118.882812 C 25.488281 119.929688 26.816406 120.914062 28.195312 121.835938 C 29.574219 122.753906 30.992188 123.605469 32.453125 124.386719 C 33.917969 125.164062 35.414062 125.871094 36.945312 126.503906 C 38.476562 127.136719 40.035156 127.695312 41.621094 128.175781 C 43.207031 128.65625 44.8125 129.058594 46.4375 129.378906 C 48.0625 129.703125 49.699219 129.945312 51.347656 130.105469 C 53 130.265625 54.652344 130.347656 56.308594 130.347656 C 57.964844 130.347656 59.617188 130.265625 61.269531 130.105469 C 62.917969 129.945312 64.554688 129.703125 66.179688 129.378906 C 67.804688 129.058594 69.410156 128.65625 70.996094 128.175781 C 72.582031 127.695312 74.140625 127.136719 75.671875 126.503906 C 77.203125 125.871094 78.699219 125.164062 80.164062 124.386719 C 81.625 123.605469 83.042969 122.753906 84.421875 121.835938 C 85.800781 120.914062 87.128906 119.929688 88.410156 118.882812 C 89.691406 117.832031 90.917969 116.71875 92.089844 115.550781 C 93.261719 114.378906 94.375 113.152344 95.425781 111.875 C 96.476562 110.59375 97.464844 109.265625 98.386719 107.890625 C 99.304688 106.511719 100.15625 105.09375 100.9375 103.636719 C 101.71875 102.175781 102.425781 100.679688 103.0625 99.152344 C 103.695312 97.621094 104.253906 96.0625 104.734375 94.480469 C 105.214844 92.894531 105.617188 91.289062 105.941406 89.667969 C 106.265625 88.042969 106.507812 86.40625 106.671875 84.757812 C 106.832031 83.113281 106.914062 81.460938 106.914062 79.804688 C 106.914062 78.148438 106.832031 76.496094 106.671875 74.847656 C 106.507812 73.203125 106.265625 71.566406 105.941406 69.941406 C 105.617188 68.316406 105.214844 66.714844 104.734375 65.128906 C 104.253906 63.546875 103.695312 61.988281 103.0625 60.457031 C 102.425781 58.929688 101.71875 57.433594 100.9375 55.972656 C 100.15625 54.511719 99.304688 53.09375 98.386719 51.71875 C 97.464844 50.34375 96.476562 49.015625 95.425781 47.734375 C 94.375 46.453125 93.261719 45.230469 92.089844 44.058594 C 90.917969 42.886719 89.691406 41.777344 88.410156 40.726562 C 87.128906 39.675781 85.800781 38.691406 84.421875 37.773438 C 83.042969 36.855469 81.625 36.003906 80.164062 35.222656 C 78.699219 34.445312 77.203125 33.738281 75.671875 33.105469 C 74.140625 32.46875 72.582031 31.914062 70.996094 31.433594 C 69.410156 30.953125 67.804688 30.550781 66.179688 30.230469 C 64.554688 29.90625 62.917969 29.664062 61.269531 29.503906 C 59.617188 29.339844 57.964844 29.261719 56.308594 29.261719 Z M 56.308594 29.261719 " fill-opacity="1" fill-rule="nonzero"/></g><path fill="rgb(62.348938%, 86.669922%, 100%)" d="M 56.308594 37.347656 C 54.917969 37.347656 53.527344 37.417969 52.144531 37.550781 C 50.757812 37.6875 49.382812 37.894531 48.019531 38.164062 C 46.652344 38.433594 45.304688 38.773438 43.972656 39.175781 C 42.640625 39.578125 41.332031 40.046875 40.046875 40.578125 C 38.761719 41.113281 37.503906 41.707031 36.277344 42.359375 C 35.050781 43.015625 33.855469 43.730469 32.699219 44.503906 C 31.542969 45.277344 30.425781 46.101562 29.351562 46.984375 C 28.273438 47.867188 27.246094 48.800781 26.261719 49.785156 C 25.277344 50.765625 24.34375 51.796875 23.460938 52.871094 C 22.578125 53.945312 21.75 55.0625 20.976562 56.21875 C 20.203125 57.375 19.488281 58.5625 18.832031 59.789062 C 18.175781 61.015625 17.582031 62.273438 17.050781 63.558594 C 16.515625 64.839844 16.046875 66.148438 15.644531 67.480469 C 15.242188 68.8125 14.902344 70.15625 14.632812 71.523438 C 14.359375 72.886719 14.15625 74.257812 14.019531 75.644531 C 13.882812 77.027344 13.816406 78.414062 13.816406 79.804688 C 13.816406 81.195312 13.882812 82.582031 14.019531 83.964844 C 14.15625 85.351562 14.359375 86.722656 14.632812 88.085938 C 14.902344 89.449219 15.242188 90.796875 15.644531 92.128906 C 16.046875 93.460938 16.515625 94.765625 17.050781 96.050781 C 17.582031 97.335938 18.175781 98.59375 18.832031 99.816406 C 19.488281 101.042969 20.203125 102.234375 20.976562 103.390625 C 21.75 104.546875 22.578125 105.664062 23.460938 106.738281 C 24.34375 107.8125 25.277344 108.84375 26.261719 109.824219 C 27.246094 110.808594 28.273438 111.742188 29.351562 112.625 C 30.425781 113.503906 31.542969 114.332031 32.699219 115.105469 C 33.855469 115.878906 35.050781 116.59375 36.277344 117.246094 C 37.503906 117.902344 38.761719 118.496094 40.046875 119.027344 C 41.332031 119.5625 42.640625 120.027344 43.972656 120.433594 C 45.304688 120.835938 46.652344 121.171875 48.019531 121.445312 C 49.382812 121.714844 50.757812 121.917969 52.144531 122.054688 C 53.527344 122.191406 54.917969 122.261719 56.308594 122.261719 C 57.699219 122.261719 59.089844 122.191406 60.472656 122.054688 C 61.859375 121.917969 63.234375 121.714844 64.597656 121.445312 C 65.964844 121.171875 67.3125 120.835938 68.644531 120.433594 C 69.976562 120.027344 71.285156 119.5625 72.570312 119.027344 C 73.855469 118.496094 75.113281 117.902344 76.339844 117.246094 C 77.566406 116.59375 78.757812 115.878906 79.917969 115.105469 C 81.074219 114.332031 82.191406 113.503906 83.265625 112.625 C 84.34375 111.742188 85.371094 110.808594 86.355469 109.824219 C 87.339844 108.84375 88.273438 107.8125 89.15625 106.738281 C 90.039062 105.664062 90.867188 104.546875 91.640625 103.390625 C 92.414062 102.234375 93.128906 101.042969 93.785156 99.816406 C 94.441406 98.59375 95.035156 97.335938 95.566406 96.050781 C 96.101562 94.765625 96.570312 93.460938 96.972656 92.128906 C 97.375 90.796875 97.714844 89.449219 97.984375 88.085938 C 98.257812 86.722656 98.460938 85.351562 98.597656 83.964844 C 98.734375 82.582031 98.800781 81.195312 98.800781 79.804688 C 98.800781 78.414062 98.734375 77.027344 98.597656 75.644531 C 98.460938 74.257812 98.257812 72.886719 97.984375 71.523438 C 97.714844 70.15625 97.375 68.8125 96.972656 67.480469 C 96.570312 66.148438 96.101562 64.839844 95.566406 63.558594 C 95.035156 62.273438 94.441406 61.015625 93.785156 59.789062 C 93.128906 58.5625 92.414062 57.375 91.640625 56.21875 C 90.867188 55.0625 90.039062 53.945312 89.15625 52.871094 C 88.273438 51.796875 87.339844 50.765625 86.355469 49.785156 C 85.371094 48.800781 84.34375 47.867188 83.265625 46.984375 C 82.191406 46.101562 81.074219 45.277344 79.917969 44.503906 C 78.757812 43.730469 77.566406 43.015625 76.339844 42.359375 C 75.113281 41.707031 73.855469 41.113281 72.570312 40.578125 C 71.285156 40.046875 69.976562 39.578125 68.644531 39.175781 C 67.3125 38.773438 65.964844 38.433594 64.597656 38.164062 C 63.234375 37.894531 61.859375 37.6875 60.472656 37.550781 C 59.089844 37.417969 57.699219 37.347656 56.308594 37.347656 Z M 56.308594 37.347656 " fill-opacity="1" fill-rule="nonzero"/><path fill="rgb(52.159119%, 79.60968%, 97.24884%)" d="M 56.308594 49.476562 C 55.3125 49.476562 54.324219 49.527344 53.332031 49.625 C 52.34375 49.722656 51.363281 49.867188 50.386719 50.0625 C 49.410156 50.253906 48.449219 50.496094 47.496094 50.785156 C 46.546875 51.074219 45.613281 51.40625 44.691406 51.785156 C 43.773438 52.167969 42.878906 52.589844 42 53.058594 C 41.125 53.527344 40.273438 54.039062 39.445312 54.589844 C 38.617188 55.140625 37.820312 55.730469 37.054688 56.363281 C 36.285156 56.992188 35.546875 57.660156 34.847656 58.359375 C 34.144531 59.0625 33.476562 59.796875 32.84375 60.566406 C 32.214844 61.332031 31.625 62.128906 31.070312 62.957031 C 30.519531 63.78125 30.007812 64.632812 29.539062 65.507812 C 29.070312 66.386719 28.648438 67.28125 28.265625 68.199219 C 27.886719 69.117188 27.550781 70.050781 27.261719 71 C 26.972656 71.953125 26.734375 72.914062 26.539062 73.886719 C 26.34375 74.863281 26.199219 75.84375 26.101562 76.832031 C 26.003906 77.820312 25.957031 78.8125 25.957031 79.804688 C 25.957031 80.796875 26.003906 81.789062 26.101562 82.777344 C 26.199219 83.765625 26.34375 84.746094 26.539062 85.71875 C 26.734375 86.695312 26.972656 87.65625 27.261719 88.609375 C 27.550781 89.558594 27.886719 90.492188 28.265625 91.410156 C 28.648438 92.328125 29.070312 93.222656 29.539062 94.101562 C 30.007812 94.976562 30.519531 95.828125 31.070312 96.652344 C 31.625 97.476562 32.214844 98.273438 32.84375 99.042969 C 33.476562 99.8125 34.144531 100.546875 34.847656 101.246094 C 35.546875 101.949219 36.285156 102.617188 37.054688 103.246094 C 37.820312 103.875 38.617188 104.46875 39.445312 105.019531 C 40.273438 105.570312 41.125 106.082031 42 106.550781 C 42.878906 107.019531 43.773438 107.441406 44.691406 107.820312 C 45.613281 108.203125 46.546875 108.535156 47.496094 108.824219 C 48.449219 109.113281 49.410156 109.355469 50.386719 109.546875 C 51.363281 109.742188 52.34375 109.886719 53.332031 109.984375 C 54.324219 110.082031 55.3125 110.128906 56.308594 110.128906 C 57.300781 110.128906 58.292969 110.082031 59.285156 109.984375 C 60.273438 109.886719 61.253906 109.742188 62.230469 109.546875 C 63.203125 109.355469 64.167969 109.113281 65.121094 108.824219 C 66.070312 108.535156 67.003906 108.203125 67.925781 107.820312 C 68.84375 107.441406 69.738281 107.019531 70.617188 106.550781 C 71.492188 106.082031 72.34375 105.570312 73.171875 105.019531 C 74 104.46875 74.796875 103.875 75.5625 103.246094 C 76.332031 102.617188 77.066406 101.949219 77.769531 101.246094 C 78.472656 100.546875 79.140625 99.8125 79.773438 99.042969 C 80.402344 98.273438 80.992188 97.476562 81.546875 96.652344 C 82.097656 95.828125 82.609375 94.976562 83.078125 94.101562 C 83.546875 93.222656 83.96875 92.328125 84.351562 91.410156 C 84.730469 90.492188 85.066406 89.558594 85.355469 88.609375 C 85.644531 87.65625 85.882812 86.695312 86.078125 85.71875 C 86.273438 84.746094 86.417969 83.765625 86.515625 82.777344 C 86.613281 81.789062 86.660156 80.796875 86.660156 79.804688 C 86.660156 78.8125 86.613281 77.820312 86.515625 76.832031 C 86.417969 75.84375 86.273438 74.863281 86.078125 73.886719 C 85.882812 72.914062 85.644531 71.953125 85.355469 71 C 85.066406 70.050781 84.730469 69.117188 84.351562 68.199219 C 83.96875 67.28125 83.546875 66.386719 83.078125 65.507812 C 82.609375 64.632812 82.097656 63.78125 81.546875 62.957031 C 80.992188 62.128906 80.402344 61.332031 79.773438 60.566406 C 79.140625 59.796875 78.472656 59.0625 77.769531 58.359375 C 77.066406 57.660156 76.332031 56.992188 75.5625 56.363281 C 74.796875 55.730469 74 55.140625 73.171875 54.589844 C 72.34375 54.039062 71.492188 53.527344 70.617188 53.058594 C 69.738281 52.589844 68.84375 52.167969 67.925781 51.785156 C 67.003906 51.40625 66.070312 51.074219 65.121094 50.785156 C 64.167969 50.496094 63.203125 50.253906 62.230469 50.0625 C 61.253906 49.867188 60.273438 49.722656 59.285156 49.625 C 58.292969 49.527344 57.300781 49.476562 56.308594 49.476562 Z M 56.308594 49.476562 " fill-opacity="1" fill-rule="nonzero"/><path fill="rgb(62.348938%, 86.669922%, 100%)" d="M 85.867188 54.132812 C 76.132812 56.992188 69.210938 62.179688 66.058594 64.914062 C 63.890625 71.492188 58.695312 78.738281 50.042969 84.679688 L 50.042969 101.886719 C 50.042969 101.886719 56.921875 89.328125 73.210938 85.5 C 83.828125 83.003906 93 82.292969 96.777344 82.09375 C 96.746094 71.316406 92.609375 61.519531 85.867188 54.132812 Z M 85.867188 54.132812 " fill-opacity="1" fill-rule="nonzero"/><path fill="rgb(96.469116%, 82.749939%, 59.21936%)" d="M 52.261719 29.261719 L 56.308594 29.261719 L 56.308594 39.371094 L 52.261719 39.371094 Z M 25.957031 120.238281 L 21.910156 116.195312 L 21.910156 102.042969 L 25.957031 106.085938 Z M 25.957031 53.523438 L 21.910156 57.566406 L 21.910156 43.414062 L 25.957031 39.371094 Z M 94.753906 110.128906 L 84.636719 110.128906 L 88.683594 106.085938 L 98.800781 106.085938 Z M 94.753906 110.128906 " fill-opacity="1" fill-rule="nonzero"/><path stroke-linecap="round" transform="matrix(2.023525, 0, 0, 2.021728, -8.444294, 9.043905)" fill="none" stroke-linejoin="round" d="M 32.000038 15.000631 C 31.345626 15.000631 30.691214 15.031545 30.038733 15.097238 C 29.388182 15.160998 28.741492 15.255673 28.098663 15.385126 C 27.455833 15.512647 26.820726 15.671082 26.19527 15.860431 C 25.567884 16.051712 24.952081 16.271975 24.34593 16.523153 C 23.741709 16.772398 23.149071 17.052558 22.571876 17.361699 C 21.994681 17.670841 21.432929 18.007032 20.888551 18.370274 C 20.344173 18.735447 19.819099 19.123806 19.311399 19.539215 C 18.80563 19.954624 18.321095 20.395151 17.857795 20.856931 C 17.394494 21.320644 16.956289 21.805609 16.539319 22.311829 C 16.124279 22.818048 15.734335 23.343589 15.371416 23.888451 C 15.006567 24.433313 14.670674 24.993632 14.361807 25.57134 C 14.05294 26.149048 13.77303 26.740281 13.522075 27.346972 C 13.271121 27.95173 13.051053 28.568081 12.861872 29.194093 C 12.670761 29.822036 12.512467 30.455777 12.385059 31.097245 C 12.255721 31.740646 12.161131 32.387911 12.095496 33.039041 C 12.031793 33.692102 12.000906 34.345164 12.000906 35.000157 C 12.000906 35.655151 12.031793 36.308213 12.095496 36.961274 C 12.161131 37.612404 12.255721 38.259669 12.385059 38.901137 C 12.512467 39.544538 12.670761 40.178278 12.861872 40.806222 C 13.051053 41.432234 13.271121 42.048585 13.522075 42.653343 C 13.77303 43.258101 14.05294 43.849334 14.361807 44.427043 C 14.670674 45.004751 15.006567 45.567002 15.371416 46.111864 C 15.734335 46.656726 16.124279 47.182267 16.539319 47.688486 C 16.956289 48.194705 17.394494 48.679671 17.857795 49.141452 C 18.321095 49.605164 18.80563 50.043758 19.311399 50.4611 C 19.819099 50.876508 20.344173 51.264868 20.888551 51.630041 C 21.432929 51.993282 21.994681 52.329474 22.571876 52.638615 C 23.149071 52.947757 23.741709 53.225984 24.34593 53.477162 C 24.952081 53.728339 25.567884 53.948603 26.19334 54.137952 C 26.820726 54.329233 27.455833 54.487668 28.098663 54.615189 C 28.741492 54.74271 29.388182 54.839317 30.038733 54.903077 C 30.691214 54.96877 31.345626 54.999684 32.000038 54.999684 C 32.654449 54.999684 33.308861 54.96877 33.959412 54.903077 C 34.611893 54.839317 35.258583 54.74271 35.901413 54.615189 C 36.544242 54.487668 37.179349 54.329233 37.804805 54.137952 C 38.432191 53.948603 39.047994 53.728339 39.654145 53.477162 C 40.258366 53.225984 40.851005 52.947757 41.4282 52.638615 C 42.005395 52.329474 42.567146 51.993282 43.111524 51.630041 C 43.655902 51.264868 44.180976 50.876508 44.688676 50.4611 C 45.194445 50.043758 45.67898 49.605164 46.142281 49.141452 C 46.605581 48.679671 47.043786 48.194705 47.460756 47.688486 C 47.875796 47.182267 48.265741 46.656726 48.628659 46.111864 C 48.993508 45.567002 49.329401 45.004751 49.638268 44.427043 C 49.947135 43.849334 50.227045 43.258101 50.478 42.653343 C 50.728954 42.048585 50.949022 41.432234 51.138203 40.806222 C 51.329314 40.178278 51.487608 39.544538 51.615016 38.901137 C 51.744354 38.259669 51.838945 37.612404 51.904579 36.961274 C 51.968283 36.308213 51.999169 35.655151 51.999169 35.000157 C 51.999169 34.345164 51.968283 33.692102 51.904579 33.039041 C 51.838945 32.387911 51.744354 31.740646 51.615016 31.097245 C 51.487608 30.455777 51.329314 29.822036 51.138203 29.194093 C 50.949022 28.568081 50.728954 27.95173 50.478 27.346972 C 50.227045 26.740281 49.947135 26.149048 49.638268 25.57134 C 49.329401 24.993632 48.993508 24.433313 48.628659 23.888451 C 48.265741 23.343589 47.875796 22.818048 47.460756 22.311829 C 47.043786 21.805609 46.605581 21.320644 46.142281 20.856931 C 45.67898 20.395151 45.194445 19.954624 44.688676 19.539215 C 44.180976 19.123806 43.655902 18.735447 43.111524 18.370274 C 42.567146 18.007032 42.005395 17.670841 41.4282 17.361699 C 40.851005 17.052558 40.258366 16.772398 39.654145 16.523153 C 39.047994 16.271975 38.432191 16.051712 37.804805 15.860431 C 37.179349 15.671082 36.544242 15.512647 35.901413 15.385126 C 35.258583 15.255673 34.611893 15.160998 33.959412 15.097238 C 33.308861 15.031545 32.654449 15.000631 32.000038 15.000631 Z M 37.999777 22.346607 C 41.858683 24.180203 44.744658 27.72567 45.67705 31.999552 M 45.964682 35.999071 C 45.891326 37.034695 45.706006 38.039405 45.420304 38.999676 " stroke="rgb(55.288696%, 42.349243%, 62.348938%)" stroke-width="2" stroke-opacity="1" stroke-miterlimit="10"/><path stroke-linecap="round" transform="matrix(2.023525, 0, 0, 2.021728, -8.444294, 9.043905)" fill="none" stroke-linejoin="round" d="M 22.185792 58.000289 C 13.257608 54.186255 6.999193 45.323553 6.999193 35.000157 C 6.999193 21.193123 18.193687 10.000266 32.000038 10.000266 C 45.806388 10.000266 57.000883 21.193123 57.000883 35.000157 C 57.000883 45.323553 50.742467 54.186255 41.814283 58.000289 " stroke="rgb(55.288696%, 42.349243%, 62.348938%)" stroke-width="2" stroke-opacity="1" stroke-miterlimit="10"/><path fill="rgb(100%, 92.158508%, 60.778809%)" d="M 19.886719 19.152344 L 50.238281 19.152344 L 50.238281 112.152344 L 106.898438 112.152344 L 92.730469 128.324219 L 19.886719 128.324219 L 27.980469 118.21875 L 27.980469 29.261719 Z M 19.886719 19.152344 " fill-opacity="1" fill-rule="nonzero"/><path fill="rgb(96.469116%, 82.749939%, 59.21936%)" d="M 50.238281 112.152344 L 50.238281 21.175781 L 40.121094 21.175781 L 40.121094 112.152344 L 46.191406 118.21875 L 100.824219 118.21875 L 106.898438 112.152344 Z M 50.238281 112.152344 " fill-opacity="1" fill-rule="nonzero"/><path fill="rgb(98.039246%, 93.728638%, 87.059021%)" d="M 46.191406 118.21875 L 40.121094 112.152344 L 106.898438 112.152344 L 100.824219 118.21875 Z M 46.191406 118.21875 " fill-opacity="1" fill-rule="nonzero"/><g clip-path="url(#id3)"><path stroke-linecap="round" transform="matrix(2.023525, 0, 0, 2.021728, -8.444294, 9.043905)" fill="none" stroke-linejoin="round" d="M 14.000819 4.999901 L 29.000168 4.999901 L 29.000168 51.000165 L 57.000883 51.000165 L 49.999256 58.999203 L 14.000819 58.999203 L 18.000645 54.00077 L 18.000645 10.000266 Z M 14.000819 4.999901 " stroke="rgb(55.288696%, 42.349243%, 62.348938%)" stroke-width="2" stroke-opacity="1" stroke-miterlimit="10"/></g><path fill="rgb(98.039246%, 93.728638%, 87.059021%)" d="M 23.933594 21.175781 L 30.003906 29.261719 L 40.121094 29.261719 L 48.214844 21.175781 Z M 23.933594 21.175781 " fill-opacity="1" fill-rule="nonzero"/><path fill="rgb(55.288696%, 42.349243%, 62.348938%)" d="M 44.167969 81.824219 C 44.167969 80.710938 43.261719 79.804688 42.144531 79.804688 L 38.097656 79.804688 C 36.980469 79.804688 36.074219 80.710938 36.074219 81.824219 C 36.074219 82.941406 36.980469 83.847656 38.097656 83.847656 L 42.144531 83.847656 C 43.261719 83.847656 44.167969 82.941406 44.167969 81.824219 Z M 44.167969 71.71875 C 44.167969 70.601562 43.261719 69.695312 42.144531 69.695312 L 38.097656 69.695312 C 36.980469 69.695312 36.074219 70.601562 36.074219 71.71875 C 36.074219 72.832031 36.980469 73.738281 38.097656 73.738281 L 42.144531 73.738281 C 43.261719 73.738281 44.167969 72.832031 44.167969 71.71875 Z M 44.167969 61.609375 C 44.167969 60.492188 43.261719 59.585938 42.144531 59.585938 L 38.097656 59.585938 C 36.980469 59.585938 36.074219 60.492188 36.074219 61.609375 C 36.074219 62.726562 36.980469 63.628906 38.097656 63.628906 L 42.144531 63.628906 C 43.261719 63.628906 44.167969 62.726562 44.167969 61.609375 Z M 44.167969 112.152344 C 44.167969 111.035156 43.261719 110.128906 42.144531 110.128906 L 38.097656 110.128906 C 36.980469 110.128906 36.074219 111.035156 36.074219 112.152344 C 36.074219 113.269531 36.980469 114.171875 38.097656 114.171875 L 42.144531 114.171875 C 43.261719 114.171875 44.167969 113.269531 44.167969 112.152344 Z M 44.167969 102.042969 C 44.167969 100.925781 43.261719 100.023438 42.144531 100.023438 L 38.097656 100.023438 C 36.980469 100.023438 36.074219 100.925781 36.074219 102.042969 C 36.074219 103.160156 36.980469 104.066406 38.097656 104.066406 L 42.144531 104.066406 C 43.261719 104.066406 44.167969 103.160156 44.167969 102.042969 Z M 44.167969 91.933594 C 44.167969 90.820312 43.261719 89.914062 42.144531 89.914062 L 38.097656 89.914062 C 36.980469 89.914062 36.074219 90.820312 36.074219 91.933594 C 36.074219 93.050781 36.980469 93.957031 38.097656 93.957031 L 42.144531 93.957031 C 43.261719 93.957031 44.167969 93.050781 44.167969 91.933594 Z M 44.167969 51.5 C 44.167969 50.382812 43.261719 49.476562 42.144531 49.476562 L 38.097656 49.476562 C 36.980469 49.476562 36.074219 50.382812 36.074219 51.5 C 36.074219 52.617188 36.980469 53.523438 38.097656 53.523438 L 42.144531 53.523438 C 43.261719 53.523438 44.167969 52.617188 44.167969 51.5 Z M 44.167969 41.390625 C 44.167969 40.277344 43.261719 39.371094 42.144531 39.371094 L 38.097656 39.371094 C 36.980469 39.371094 36.074219 40.277344 36.074219 41.390625 C 36.074219 42.507812 36.980469 43.414062 38.097656 43.414062 L 42.144531 43.414062 C 43.261719 43.414062 44.167969 42.507812 44.167969 41.390625 Z M 44.167969 31.28125 C 44.167969 30.167969 43.261719 29.261719 42.144531 29.261719 L 38.097656 29.261719 C 36.980469 29.261719 36.074219 30.167969 36.074219 31.28125 C 36.074219 32.398438 36.980469 33.304688 38.097656 33.304688 L 42.144531 33.304688 C 43.261719 33.304688 44.167969 32.398438 44.167969 31.28125 Z M 44.167969 31.28125 " fill-opacity="1" fill-rule="nonzero"/></svg>